# xmcd CD database file
#
# Track frame offsets:
#	182
#	13634
#	25227
#	37218
#	53095
#	64234
#	78360
#	91561
#	105035
#	117309
#	129867
#	144483
#	156608
#	168887
#	181963
#	195397
#	206860
#	219229
#	230175
#	242966
#	257542
#	271147
#	285450
#	298311
#	309427
#	321555
#
# Disc length: 4476 seconds
#
# Revision: 0
# Processed by: cddbd v1.4PL0 Copyright (c) Steve Scherf et al.
# Submitted via: CDex 1.50beta10
#
DISCID=76117a1a
DTITLE=The Spirits of Rhythm - 1933-1945
DYEAR=1998
DGENRE=Jazz
TTITLE0=I Got Rhythm 
TTITLE1=Nobody's Sweetheart 
TTITLE2=I Got Rhythm 
TTITLE3=I've Got the World on a String 
TTITLE4=Rhythm 
TTITLE5=I'll Be Ready When the Great Day Comes 
TTITLE6=My Old Man 
TTITLE7=Way Down Yonder in New Orleans 
TTITLE8=I've Got the World on a String
TTITLE9=From Monday On
TTITLE10=As Long as I Live
TTITLE11=Junk Man 
TTITLE12=Dr. Watson and Mr. Holmes 
TTITLE13=That's What I Hate About You 
TTITLE14=Shoutin' in That Amen Corner 
TTITLE15=It's a Long. Long Way from Tipperary
TTITLE16=I Woke up With a Teardrop in My Eye
TTITLE17=From Monday On
TTITLE18=Walkin' This Town 
TTITLE19=We've Got the Blues 
TTITLE20=Honeysuckle Rose 
TTITLE21=Scattin' the Blues 
TTITLE22=Suspicious Blues 
TTITLE23=She Ain't No Saint 
TTITLE24=Last Call Blues 
TTITLE25=Coquette (Chicken Coquette) 
EXTD=YEAR: 1998
EXTT0=
EXTT1=
EXTT2=
EXTT3=
EXTT4=
EXTT5=
EXTT6=
EXTT7=
EXTT8=
EXTT9=
EXTT10=
EXTT11=
EXTT12=
EXTT13=
EXTT14=
EXTT15=
EXTT16=
EXTT17=
EXTT18=
EXTT19=
EXTT20=
EXTT21=
EXTT22=
EXTT23=
EXTT24=
EXTT25=
PLAYORDER=
